<svg width="41" height="35" viewBox="0 0 41 35" fill="none" xmlns="http://www.w3.org/2000/svg">
<path d="M16.135 31.5241C17.3551 29.8293 18.5393 28.1796 19.7235 26.5312C20.7323 25.1299 21.7317 23.722 22.7551 22.3326C23.6813 21.0702 25.0135 20.1643 26.5284 19.7665C28.5739 19.198 30.6101 18.5817 32.6795 18.1168C34.374 17.7356 35.2233 16.5813 35.9251 15.1548C32.8044 14.9595 31.1922 13.2129 31.3517 10.6666H30.5649C28.0839 10.6666 25.6029 10.6666 23.122 10.6666C21.9258 10.6666 21.1762 10.0185 21.1589 8.98641C21.1403 7.91585 21.8899 7.23313 23.1153 7.21719C23.9128 7.20789 24.6996 7.21719 25.4904 7.21719L25.6233 7.05381C25.2126 6.53447 24.8564 5.95668 24.3806 5.50508C22.6528 3.86602 20.5661 3.1926 18.2243 3.53529C16.4141 3.80094 15.1873 5.34702 15.182 7.18398C15.1705 10.8597 15.1705 14.5345 15.182 18.2084C15.1926 20.2911 14.439 21.9474 12.5238 22.8852C10.5461 23.8548 8.603 23.6569 6.82867 22.3459C5.58198 21.4268 4.39112 20.4319 3.17367 19.4729C-0.93587 16.24 -0.8641 10.8911 2.29382 7.57183C6.90576 2.72506 12.5783 -0.0549626 19.3886 0.000823811C22.8375 0.028717 25.7682 1.38619 27.8761 4.21004C28.4197 4.94057 28.7786 5.82519 29.1241 6.67925C29.285 7.07772 29.4338 7.22914 29.8605 7.22383C31.8089 7.20391 33.7587 7.21453 35.7084 7.21586C38.3547 7.21586 39.9615 8.56138 40.137 11.2086C40.3722 14.8307 39.0671 17.9016 36.2587 20.2327C35.6061 20.7746 34.7169 21.0947 33.8849 21.3458C31.8116 21.974 29.7103 22.512 27.6156 23.0725C26.7069 23.3047 25.9125 23.857 25.3788 24.6278C23.3311 27.4898 21.2781 30.3477 19.2198 33.2017C17.7471 35.2445 15.7641 35.5606 13.7067 34.0797C9.63083 31.1389 5.5585 28.1955 1.48972 25.2495C0.685618 24.6664 0.426446 23.8535 0.769351 23.0472C0.919202 22.6856 1.19116 22.3879 1.53791 22.2059C1.88467 22.0239 2.2843 21.9691 2.66729 22.0511C3.04772 22.1593 3.40374 22.3396 3.71594 22.5823C7.68903 25.4363 11.6564 28.2987 15.6179 31.1695C15.7575 31.2664 15.905 31.3647 16.135 31.5241ZM11.729 5.04816C11.1216 5.36428 10.4292 5.69103 9.76862 6.07357C7.78429 7.21985 5.88634 8.49098 4.49213 10.3519C3.19095 12.0865 3.08197 14.4296 4.46023 15.8096C5.90495 17.2561 7.54771 18.5299 9.21837 19.7186C10.3228 20.5063 11.624 19.7186 11.7184 18.3705C11.7397 18.0623 11.729 17.7515 11.729 17.4407V5.04816Z" fill="white"/>
<path d="M13.4264 25.2582C13.419 24.9241 13.4791 24.592 13.6032 24.2817C13.7273 23.9714 13.9127 23.6893 14.1485 23.4525C14.3842 23.2156 14.6653 23.0288 14.975 22.9032C15.2847 22.7777 15.6166 22.716 15.9507 22.7218C16.4494 22.7218 16.937 22.8696 17.3519 23.1464C17.7667 23.4233 18.0903 23.8168 18.2817 24.2774C18.4731 24.738 18.5238 25.2449 18.4273 25.7343C18.3309 26.2236 18.0917 26.6735 17.7398 27.027C17.388 27.3805 16.9394 27.6219 16.4505 27.7206C15.9616 27.8194 15.4544 27.7711 14.993 27.5819C14.5315 27.3926 14.1365 27.071 13.8576 26.6574C13.5788 26.2439 13.4288 25.757 13.4264 25.2582Z" fill="#FD792F"/>
<path d="M21.8011 18.5631C21.8011 18.77 21.7591 18.9746 21.6777 19.1646C21.5963 19.3545 21.4773 19.5257 21.3279 19.6677C21.1784 19.8096 21.0018 19.9193 20.8088 19.9901C20.6157 20.0608 20.4104 20.0911 20.2053 20.0791C20.0015 20.0744 19.8006 20.0289 19.6144 19.9453C19.4281 19.8617 19.2603 19.7416 19.1206 19.592C18.9809 19.4424 18.8721 19.2663 18.8007 19.074C18.7292 18.8817 18.6964 18.677 18.7043 18.4718C18.7121 18.2666 18.7604 18.065 18.8464 17.8788C18.9323 17.6926 19.0542 17.5254 19.2049 17.3871C19.3556 17.2488 19.5322 17.1421 19.7242 17.0731C19.9163 17.0042 20.1201 16.9744 20.3237 16.9855C20.7265 16.9999 21.1075 17.1735 21.384 17.4688C21.6606 17.7641 21.8104 18.1573 21.8011 18.5631Z" fill="#FD792F"/>
<path d="M11.705 5.0491V17.4816C11.705 17.7934 11.7156 18.1052 11.6943 18.4144C11.5999 19.7696 10.2985 20.5571 9.1939 19.7669C7.52297 18.5743 5.87996 17.2964 4.43501 15.8453C3.05652 14.4608 3.16552 12.1142 4.46691 10.3699C5.86135 8.50435 7.75959 7.22779 9.74423 6.07781C10.4049 5.69005 11.0975 5.36624 11.705 5.0491Z" fill="#FD792F"/>
</svg>
